<mxfile host="app.diagrams.net" modified="2024-01-20T20:13:21.559Z" agent="Mozilla/5.0 (Windows NT 10.0; Win64; x64) AppleWebKit/537.36 (KHTML, like Gecko) Chrome/119.0.0.0 Safari/537.36 OPR/105.0.0.0" etag="4Sz4LrK4GaxcAXbcoauS" version="22.1.21" type="google">
  <diagram id="R2lEEEUBdFMjLlhIrx00" name="Page-1">
    <mxGraphModel grid="0" page="0" gridSize="10" guides="1" tooltips="1" connect="1" arrows="1" fold="1" pageScale="1" pageWidth="850" pageHeight="1100" background="#000000" math="0" shadow="0" extFonts="Permanent Marker^https://fonts.googleapis.com/css?family=Permanent+Marker">
      <root>
        <mxCell id="0" />
        <mxCell id="1" parent="0" />
        <mxCell id="96M3sYAH7NTq2ReLCQf2-24" value="Users" style="shape=table;startSize=30;container=1;collapsible=1;childLayout=tableLayout;fixedRows=1;rowLines=0;fontStyle=1;align=center;resizeLast=1;html=1;strokeColor=#FFFFFF;fontColor=#FFFFFF;fillColor=#182E3E;" vertex="1" parent="1">
          <mxGeometry x="111" y="148" width="180" height="180" as="geometry" />
        </mxCell>
        <mxCell id="96M3sYAH7NTq2ReLCQf2-25" value="" style="shape=tableRow;horizontal=0;startSize=0;swimlaneHead=0;swimlaneBody=0;fillColor=none;collapsible=0;dropTarget=0;points=[[0,0.5],[1,0.5]];portConstraint=eastwest;top=0;left=0;right=0;bottom=1;strokeColor=#FFFFFF;fontColor=#FFFFFF;" vertex="1" parent="96M3sYAH7NTq2ReLCQf2-24">
          <mxGeometry y="30" width="180" height="30" as="geometry" />
        </mxCell>
        <mxCell id="96M3sYAH7NTq2ReLCQf2-26" value="PK" style="shape=partialRectangle;connectable=0;fillColor=none;top=0;left=0;bottom=0;right=0;fontStyle=1;overflow=hidden;whiteSpace=wrap;html=1;strokeColor=#FFFFFF;fontColor=#FFFFFF;" vertex="1" parent="96M3sYAH7NTq2ReLCQf2-25">
          <mxGeometry width="30" height="30" as="geometry">
            <mxRectangle width="30" height="30" as="alternateBounds" />
          </mxGeometry>
        </mxCell>
        <mxCell id="96M3sYAH7NTq2ReLCQf2-27" value="UserId" style="shape=partialRectangle;connectable=0;fillColor=none;top=0;left=0;bottom=0;right=0;align=left;spacingLeft=6;fontStyle=5;overflow=hidden;whiteSpace=wrap;html=1;strokeColor=#FFFFFF;fontColor=#FFFFFF;" vertex="1" parent="96M3sYAH7NTq2ReLCQf2-25">
          <mxGeometry x="30" width="150" height="30" as="geometry">
            <mxRectangle width="150" height="30" as="alternateBounds" />
          </mxGeometry>
        </mxCell>
        <mxCell id="96M3sYAH7NTq2ReLCQf2-28" value="" style="shape=tableRow;horizontal=0;startSize=0;swimlaneHead=0;swimlaneBody=0;fillColor=none;collapsible=0;dropTarget=0;points=[[0,0.5],[1,0.5]];portConstraint=eastwest;top=0;left=0;right=0;bottom=0;strokeColor=#FFFFFF;fontColor=#FFFFFF;" vertex="1" parent="96M3sYAH7NTq2ReLCQf2-24">
          <mxGeometry y="60" width="180" height="30" as="geometry" />
        </mxCell>
        <mxCell id="96M3sYAH7NTq2ReLCQf2-29" value="" style="shape=partialRectangle;connectable=0;fillColor=none;top=0;left=0;bottom=0;right=0;editable=1;overflow=hidden;whiteSpace=wrap;html=1;strokeColor=#FFFFFF;fontColor=#FFFFFF;" vertex="1" parent="96M3sYAH7NTq2ReLCQf2-28">
          <mxGeometry width="30" height="30" as="geometry">
            <mxRectangle width="30" height="30" as="alternateBounds" />
          </mxGeometry>
        </mxCell>
        <mxCell id="96M3sYAH7NTq2ReLCQf2-30" value="username" style="shape=partialRectangle;connectable=0;fillColor=none;top=0;left=0;bottom=0;right=0;align=left;spacingLeft=6;overflow=hidden;whiteSpace=wrap;html=1;strokeColor=#FFFFFF;fontColor=#FFFFFF;" vertex="1" parent="96M3sYAH7NTq2ReLCQf2-28">
          <mxGeometry x="30" width="150" height="30" as="geometry">
            <mxRectangle width="150" height="30" as="alternateBounds" />
          </mxGeometry>
        </mxCell>
        <mxCell id="96M3sYAH7NTq2ReLCQf2-31" value="" style="shape=tableRow;horizontal=0;startSize=0;swimlaneHead=0;swimlaneBody=0;fillColor=none;collapsible=0;dropTarget=0;points=[[0,0.5],[1,0.5]];portConstraint=eastwest;top=0;left=0;right=0;bottom=0;strokeColor=#FFFFFF;fontColor=#FFFFFF;" vertex="1" parent="96M3sYAH7NTq2ReLCQf2-24">
          <mxGeometry y="90" width="180" height="30" as="geometry" />
        </mxCell>
        <mxCell id="96M3sYAH7NTq2ReLCQf2-32" value="" style="shape=partialRectangle;connectable=0;fillColor=none;top=0;left=0;bottom=0;right=0;editable=1;overflow=hidden;whiteSpace=wrap;html=1;strokeColor=#FFFFFF;fontColor=#FFFFFF;" vertex="1" parent="96M3sYAH7NTq2ReLCQf2-31">
          <mxGeometry width="30" height="30" as="geometry">
            <mxRectangle width="30" height="30" as="alternateBounds" />
          </mxGeometry>
        </mxCell>
        <mxCell id="96M3sYAH7NTq2ReLCQf2-33" value="password" style="shape=partialRectangle;connectable=0;fillColor=none;top=0;left=0;bottom=0;right=0;align=left;spacingLeft=6;overflow=hidden;whiteSpace=wrap;html=1;strokeColor=#FFFFFF;fontColor=#FFFFFF;" vertex="1" parent="96M3sYAH7NTq2ReLCQf2-31">
          <mxGeometry x="30" width="150" height="30" as="geometry">
            <mxRectangle width="150" height="30" as="alternateBounds" />
          </mxGeometry>
        </mxCell>
        <mxCell id="96M3sYAH7NTq2ReLCQf2-34" value="" style="shape=tableRow;horizontal=0;startSize=0;swimlaneHead=0;swimlaneBody=0;fillColor=none;collapsible=0;dropTarget=0;points=[[0,0.5],[1,0.5]];portConstraint=eastwest;top=0;left=0;right=0;bottom=0;strokeColor=#FFFFFF;fontColor=#FFFFFF;" vertex="1" parent="96M3sYAH7NTq2ReLCQf2-24">
          <mxGeometry y="120" width="180" height="30" as="geometry" />
        </mxCell>
        <mxCell id="96M3sYAH7NTq2ReLCQf2-35" value="" style="shape=partialRectangle;connectable=0;fillColor=none;top=0;left=0;bottom=0;right=0;editable=1;overflow=hidden;whiteSpace=wrap;html=1;strokeColor=#FFFFFF;fontColor=#FFFFFF;" vertex="1" parent="96M3sYAH7NTq2ReLCQf2-34">
          <mxGeometry width="30" height="30" as="geometry">
            <mxRectangle width="30" height="30" as="alternateBounds" />
          </mxGeometry>
        </mxCell>
        <mxCell id="96M3sYAH7NTq2ReLCQf2-36" value="email" style="shape=partialRectangle;connectable=0;fillColor=none;top=0;left=0;bottom=0;right=0;align=left;spacingLeft=6;overflow=hidden;whiteSpace=wrap;html=1;strokeColor=#FFFFFF;fontColor=#FFFFFF;" vertex="1" parent="96M3sYAH7NTq2ReLCQf2-34">
          <mxGeometry x="30" width="150" height="30" as="geometry">
            <mxRectangle width="150" height="30" as="alternateBounds" />
          </mxGeometry>
        </mxCell>
        <mxCell id="96M3sYAH7NTq2ReLCQf2-37" value="" style="shape=tableRow;horizontal=0;startSize=0;swimlaneHead=0;swimlaneBody=0;fillColor=none;collapsible=0;dropTarget=0;points=[[0,0.5],[1,0.5]];portConstraint=eastwest;top=0;left=0;right=0;bottom=0;strokeColor=#FFFFFF;fontColor=#FFFFFF;" vertex="1" parent="96M3sYAH7NTq2ReLCQf2-24">
          <mxGeometry y="150" width="180" height="30" as="geometry" />
        </mxCell>
        <mxCell id="96M3sYAH7NTq2ReLCQf2-38" value="" style="shape=partialRectangle;connectable=0;fillColor=none;top=0;left=0;bottom=0;right=0;editable=1;overflow=hidden;whiteSpace=wrap;html=1;strokeColor=#FFFFFF;fontColor=#FFFFFF;" vertex="1" parent="96M3sYAH7NTq2ReLCQf2-37">
          <mxGeometry width="30" height="30" as="geometry">
            <mxRectangle width="30" height="30" as="alternateBounds" />
          </mxGeometry>
        </mxCell>
        <mxCell id="96M3sYAH7NTq2ReLCQf2-39" value="role" style="shape=partialRectangle;connectable=0;fillColor=none;top=0;left=0;bottom=0;right=0;align=left;spacingLeft=6;overflow=hidden;whiteSpace=wrap;html=1;strokeColor=#FFFFFF;fontColor=#FFFFFF;" vertex="1" parent="96M3sYAH7NTq2ReLCQf2-37">
          <mxGeometry x="30" width="150" height="30" as="geometry">
            <mxRectangle width="150" height="30" as="alternateBounds" />
          </mxGeometry>
        </mxCell>
        <mxCell id="96M3sYAH7NTq2ReLCQf2-40" value="Readers" style="shape=table;startSize=30;container=1;collapsible=1;childLayout=tableLayout;fixedRows=1;rowLines=0;fontStyle=1;align=center;resizeLast=1;html=1;strokeColor=#FFFFFF;fontColor=#FFFFFF;fillColor=#182E3E;" vertex="1" parent="1">
          <mxGeometry x="452" y="153" width="180" height="120" as="geometry" />
        </mxCell>
        <mxCell id="96M3sYAH7NTq2ReLCQf2-41" value="" style="shape=tableRow;horizontal=0;startSize=0;swimlaneHead=0;swimlaneBody=0;fillColor=none;collapsible=0;dropTarget=0;points=[[0,0.5],[1,0.5]];portConstraint=eastwest;top=0;left=0;right=0;bottom=1;strokeColor=#FFFFFF;fontColor=#FFFFFF;" vertex="1" parent="96M3sYAH7NTq2ReLCQf2-40">
          <mxGeometry y="30" width="180" height="30" as="geometry" />
        </mxCell>
        <mxCell id="96M3sYAH7NTq2ReLCQf2-42" value="PK" style="shape=partialRectangle;connectable=0;fillColor=none;top=0;left=0;bottom=0;right=0;fontStyle=1;overflow=hidden;whiteSpace=wrap;html=1;strokeColor=#FFFFFF;fontColor=#FFFFFF;" vertex="1" parent="96M3sYAH7NTq2ReLCQf2-41">
          <mxGeometry width="30" height="30" as="geometry">
            <mxRectangle width="30" height="30" as="alternateBounds" />
          </mxGeometry>
        </mxCell>
        <mxCell id="96M3sYAH7NTq2ReLCQf2-43" value="readerId" style="shape=partialRectangle;connectable=0;fillColor=none;top=0;left=0;bottom=0;right=0;align=left;spacingLeft=6;fontStyle=5;overflow=hidden;whiteSpace=wrap;html=1;strokeColor=#FFFFFF;fontColor=#FFFFFF;" vertex="1" parent="96M3sYAH7NTq2ReLCQf2-41">
          <mxGeometry x="30" width="150" height="30" as="geometry">
            <mxRectangle width="150" height="30" as="alternateBounds" />
          </mxGeometry>
        </mxCell>
        <mxCell id="0z83QQOqZYMPLiicM_sd-5" value="" style="shape=tableRow;horizontal=0;startSize=0;swimlaneHead=0;swimlaneBody=0;fillColor=none;collapsible=0;dropTarget=0;points=[[0,0.5],[1,0.5]];portConstraint=eastwest;top=0;left=0;right=0;bottom=1;strokeColor=#FFFFFF;fontColor=#FFFFFF;" vertex="1" parent="96M3sYAH7NTq2ReLCQf2-40">
          <mxGeometry y="60" width="180" height="30" as="geometry" />
        </mxCell>
        <mxCell id="0z83QQOqZYMPLiicM_sd-6" value="FK" style="shape=partialRectangle;connectable=0;fillColor=none;top=0;left=0;bottom=0;right=0;fontStyle=1;overflow=hidden;whiteSpace=wrap;html=1;strokeColor=#FFFFFF;fontColor=#FFFFFF;" vertex="1" parent="0z83QQOqZYMPLiicM_sd-5">
          <mxGeometry width="30" height="30" as="geometry">
            <mxRectangle width="30" height="30" as="alternateBounds" />
          </mxGeometry>
        </mxCell>
        <mxCell id="0z83QQOqZYMPLiicM_sd-7" value="UserId" style="shape=partialRectangle;connectable=0;fillColor=none;top=0;left=0;bottom=0;right=0;align=left;spacingLeft=6;fontStyle=5;overflow=hidden;whiteSpace=wrap;html=1;strokeColor=#FFFFFF;fontColor=#FFFFFF;" vertex="1" parent="0z83QQOqZYMPLiicM_sd-5">
          <mxGeometry x="30" width="150" height="30" as="geometry">
            <mxRectangle width="150" height="30" as="alternateBounds" />
          </mxGeometry>
        </mxCell>
        <mxCell id="0z83QQOqZYMPLiicM_sd-8" value="" style="shape=tableRow;horizontal=0;startSize=0;swimlaneHead=0;swimlaneBody=0;fillColor=none;collapsible=0;dropTarget=0;points=[[0,0.5],[1,0.5]];portConstraint=eastwest;top=0;left=0;right=0;bottom=1;strokeColor=#FFFFFF;fontColor=#FFFFFF;" vertex="1" parent="96M3sYAH7NTq2ReLCQf2-40">
          <mxGeometry y="90" width="180" height="30" as="geometry" />
        </mxCell>
        <mxCell id="0z83QQOqZYMPLiicM_sd-9" value="" style="shape=partialRectangle;connectable=0;fillColor=none;top=0;left=0;bottom=0;right=0;fontStyle=1;overflow=hidden;whiteSpace=wrap;html=1;strokeColor=#FFFFFF;fontColor=#FFFFFF;" vertex="1" parent="0z83QQOqZYMPLiicM_sd-8">
          <mxGeometry width="30" height="30" as="geometry">
            <mxRectangle width="30" height="30" as="alternateBounds" />
          </mxGeometry>
        </mxCell>
        <mxCell id="0z83QQOqZYMPLiicM_sd-10" value="&lt;span style=&quot;font-weight: normal;&quot;&gt;readedBooks&lt;/span&gt;" style="shape=partialRectangle;connectable=0;fillColor=none;top=0;left=0;bottom=0;right=0;align=left;spacingLeft=6;fontStyle=5;overflow=hidden;whiteSpace=wrap;html=1;strokeColor=#FFFFFF;fontColor=#FFFFFF;" vertex="1" parent="0z83QQOqZYMPLiicM_sd-8">
          <mxGeometry x="30" width="150" height="30" as="geometry">
            <mxRectangle width="150" height="30" as="alternateBounds" />
          </mxGeometry>
        </mxCell>
        <mxCell id="96M3sYAH7NTq2ReLCQf2-56" value="Admins" style="shape=table;startSize=24;container=1;collapsible=1;childLayout=tableLayout;fixedRows=1;rowLines=0;fontStyle=1;align=center;resizeLast=1;html=1;strokeColor=#FFFFFF;fontColor=#FFFFFF;fillColor=#182E3E;" vertex="1" parent="1">
          <mxGeometry x="-180" y="224" width="180" height="90" as="geometry" />
        </mxCell>
        <mxCell id="96M3sYAH7NTq2ReLCQf2-57" value="" style="shape=tableRow;horizontal=0;startSize=0;swimlaneHead=0;swimlaneBody=0;fillColor=none;collapsible=0;dropTarget=0;points=[[0,0.5],[1,0.5]];portConstraint=eastwest;top=0;left=0;right=0;bottom=1;strokeColor=#FFFFFF;fontColor=#FFFFFF;" vertex="1" parent="96M3sYAH7NTq2ReLCQf2-56">
          <mxGeometry y="24" width="180" height="30" as="geometry" />
        </mxCell>
        <mxCell id="96M3sYAH7NTq2ReLCQf2-58" value="PK" style="shape=partialRectangle;connectable=0;fillColor=none;top=0;left=0;bottom=0;right=0;fontStyle=1;overflow=hidden;whiteSpace=wrap;html=1;strokeColor=#FFFFFF;fontColor=#FFFFFF;" vertex="1" parent="96M3sYAH7NTq2ReLCQf2-57">
          <mxGeometry width="30" height="30" as="geometry">
            <mxRectangle width="30" height="30" as="alternateBounds" />
          </mxGeometry>
        </mxCell>
        <mxCell id="96M3sYAH7NTq2ReLCQf2-59" value="adminId" style="shape=partialRectangle;connectable=0;fillColor=none;top=0;left=0;bottom=0;right=0;align=left;spacingLeft=6;fontStyle=5;overflow=hidden;whiteSpace=wrap;html=1;strokeColor=#FFFFFF;fontColor=#FFFFFF;" vertex="1" parent="96M3sYAH7NTq2ReLCQf2-57">
          <mxGeometry x="30" width="150" height="30" as="geometry">
            <mxRectangle width="150" height="30" as="alternateBounds" />
          </mxGeometry>
        </mxCell>
        <mxCell id="0z83QQOqZYMPLiicM_sd-20" value="" style="shape=tableRow;horizontal=0;startSize=0;swimlaneHead=0;swimlaneBody=0;fillColor=none;collapsible=0;dropTarget=0;points=[[0,0.5],[1,0.5]];portConstraint=eastwest;top=0;left=0;right=0;bottom=1;strokeColor=#FFFFFF;fontColor=#FFFFFF;" vertex="1" parent="96M3sYAH7NTq2ReLCQf2-56">
          <mxGeometry y="54" width="180" height="30" as="geometry" />
        </mxCell>
        <mxCell id="0z83QQOqZYMPLiicM_sd-21" value="FK" style="shape=partialRectangle;connectable=0;fillColor=none;top=0;left=0;bottom=0;right=0;fontStyle=1;overflow=hidden;whiteSpace=wrap;html=1;strokeColor=#FFFFFF;fontColor=#FFFFFF;" vertex="1" parent="0z83QQOqZYMPLiicM_sd-20">
          <mxGeometry width="30" height="30" as="geometry">
            <mxRectangle width="30" height="30" as="alternateBounds" />
          </mxGeometry>
        </mxCell>
        <mxCell id="0z83QQOqZYMPLiicM_sd-22" value="UserId" style="shape=partialRectangle;connectable=0;fillColor=none;top=0;left=0;bottom=0;right=0;align=left;spacingLeft=6;fontStyle=5;overflow=hidden;whiteSpace=wrap;html=1;strokeColor=#FFFFFF;fontColor=#FFFFFF;" vertex="1" parent="0z83QQOqZYMPLiicM_sd-20">
          <mxGeometry x="30" width="150" height="30" as="geometry">
            <mxRectangle width="150" height="30" as="alternateBounds" />
          </mxGeometry>
        </mxCell>
        <mxCell id="96M3sYAH7NTq2ReLCQf2-67" value="Librarians" style="shape=table;startSize=30;container=1;collapsible=1;childLayout=tableLayout;fixedRows=1;rowLines=0;fontStyle=1;align=center;resizeLast=1;html=1;strokeColor=#FFFFFF;fontColor=#FFFFFF;fillColor=#182E3E;" vertex="1" parent="1">
          <mxGeometry x="-173" y="114" width="180" height="92" as="geometry" />
        </mxCell>
        <mxCell id="96M3sYAH7NTq2ReLCQf2-68" value="" style="shape=tableRow;horizontal=0;startSize=0;swimlaneHead=0;swimlaneBody=0;fillColor=none;collapsible=0;dropTarget=0;points=[[0,0.5],[1,0.5]];portConstraint=eastwest;top=0;left=0;right=0;bottom=1;strokeColor=#FFFFFF;fontColor=#FFFFFF;" vertex="1" parent="96M3sYAH7NTq2ReLCQf2-67">
          <mxGeometry y="30" width="180" height="32" as="geometry" />
        </mxCell>
        <mxCell id="96M3sYAH7NTq2ReLCQf2-69" value="PK" style="shape=partialRectangle;connectable=0;fillColor=none;top=0;left=0;bottom=0;right=0;fontStyle=1;overflow=hidden;whiteSpace=wrap;html=1;strokeColor=#FFFFFF;fontColor=#FFFFFF;" vertex="1" parent="96M3sYAH7NTq2ReLCQf2-68">
          <mxGeometry width="30" height="32" as="geometry">
            <mxRectangle width="30" height="32" as="alternateBounds" />
          </mxGeometry>
        </mxCell>
        <mxCell id="96M3sYAH7NTq2ReLCQf2-70" value="librarianId" style="shape=partialRectangle;connectable=0;fillColor=none;top=0;left=0;bottom=0;right=0;align=left;spacingLeft=6;fontStyle=5;overflow=hidden;whiteSpace=wrap;html=1;strokeColor=#FFFFFF;fontColor=#FFFFFF;" vertex="1" parent="96M3sYAH7NTq2ReLCQf2-68">
          <mxGeometry x="30" width="150" height="32" as="geometry">
            <mxRectangle width="150" height="32" as="alternateBounds" />
          </mxGeometry>
        </mxCell>
        <mxCell id="0z83QQOqZYMPLiicM_sd-17" value="" style="shape=tableRow;horizontal=0;startSize=0;swimlaneHead=0;swimlaneBody=0;fillColor=none;collapsible=0;dropTarget=0;points=[[0,0.5],[1,0.5]];portConstraint=eastwest;top=0;left=0;right=0;bottom=1;strokeColor=#FFFFFF;fontColor=#FFFFFF;" vertex="1" parent="96M3sYAH7NTq2ReLCQf2-67">
          <mxGeometry y="62" width="180" height="30" as="geometry" />
        </mxCell>
        <mxCell id="0z83QQOqZYMPLiicM_sd-18" value="FK" style="shape=partialRectangle;connectable=0;fillColor=none;top=0;left=0;bottom=0;right=0;fontStyle=1;overflow=hidden;whiteSpace=wrap;html=1;strokeColor=#FFFFFF;fontColor=#FFFFFF;" vertex="1" parent="0z83QQOqZYMPLiicM_sd-17">
          <mxGeometry width="30" height="30" as="geometry">
            <mxRectangle width="30" height="30" as="alternateBounds" />
          </mxGeometry>
        </mxCell>
        <mxCell id="0z83QQOqZYMPLiicM_sd-19" value="UserId" style="shape=partialRectangle;connectable=0;fillColor=none;top=0;left=0;bottom=0;right=0;align=left;spacingLeft=6;fontStyle=5;overflow=hidden;whiteSpace=wrap;html=1;strokeColor=#FFFFFF;fontColor=#FFFFFF;" vertex="1" parent="0z83QQOqZYMPLiicM_sd-17">
          <mxGeometry x="30" width="150" height="30" as="geometry">
            <mxRectangle width="150" height="30" as="alternateBounds" />
          </mxGeometry>
        </mxCell>
        <mxCell id="96M3sYAH7NTq2ReLCQf2-74" value="Books" style="shape=table;startSize=30;container=1;collapsible=1;childLayout=tableLayout;fixedRows=1;rowLines=0;fontStyle=1;align=center;resizeLast=1;html=1;strokeColor=#FFFFFF;fontColor=#FFFFFF;fillColor=#182E3E;" vertex="1" parent="1">
          <mxGeometry x="682" y="52" width="180" height="180" as="geometry" />
        </mxCell>
        <mxCell id="96M3sYAH7NTq2ReLCQf2-75" value="" style="shape=tableRow;horizontal=0;startSize=0;swimlaneHead=0;swimlaneBody=0;fillColor=none;collapsible=0;dropTarget=0;points=[[0,0.5],[1,0.5]];portConstraint=eastwest;top=0;left=0;right=0;bottom=1;strokeColor=#FFFFFF;fontColor=#FFFFFF;" vertex="1" parent="96M3sYAH7NTq2ReLCQf2-74">
          <mxGeometry y="30" width="180" height="30" as="geometry" />
        </mxCell>
        <mxCell id="96M3sYAH7NTq2ReLCQf2-76" value="PK" style="shape=partialRectangle;connectable=0;fillColor=none;top=0;left=0;bottom=0;right=0;fontStyle=1;overflow=hidden;whiteSpace=wrap;html=1;strokeColor=#FFFFFF;fontColor=#FFFFFF;" vertex="1" parent="96M3sYAH7NTq2ReLCQf2-75">
          <mxGeometry width="30" height="30" as="geometry">
            <mxRectangle width="30" height="30" as="alternateBounds" />
          </mxGeometry>
        </mxCell>
        <mxCell id="96M3sYAH7NTq2ReLCQf2-77" value="bookId" style="shape=partialRectangle;connectable=0;fillColor=none;top=0;left=0;bottom=0;right=0;align=left;spacingLeft=6;fontStyle=5;overflow=hidden;whiteSpace=wrap;html=1;strokeColor=#FFFFFF;fontColor=#FFFFFF;" vertex="1" parent="96M3sYAH7NTq2ReLCQf2-75">
          <mxGeometry x="30" width="150" height="30" as="geometry">
            <mxRectangle width="150" height="30" as="alternateBounds" />
          </mxGeometry>
        </mxCell>
        <mxCell id="96M3sYAH7NTq2ReLCQf2-78" value="" style="shape=tableRow;horizontal=0;startSize=0;swimlaneHead=0;swimlaneBody=0;fillColor=none;collapsible=0;dropTarget=0;points=[[0,0.5],[1,0.5]];portConstraint=eastwest;top=0;left=0;right=0;bottom=0;strokeColor=#FFFFFF;fontColor=#FFFFFF;" vertex="1" parent="96M3sYAH7NTq2ReLCQf2-74">
          <mxGeometry y="60" width="180" height="30" as="geometry" />
        </mxCell>
        <mxCell id="96M3sYAH7NTq2ReLCQf2-79" value="" style="shape=partialRectangle;connectable=0;fillColor=none;top=0;left=0;bottom=0;right=0;editable=1;overflow=hidden;whiteSpace=wrap;html=1;strokeColor=#FFFFFF;fontColor=#FFFFFF;" vertex="1" parent="96M3sYAH7NTq2ReLCQf2-78">
          <mxGeometry width="30" height="30" as="geometry">
            <mxRectangle width="30" height="30" as="alternateBounds" />
          </mxGeometry>
        </mxCell>
        <mxCell id="96M3sYAH7NTq2ReLCQf2-80" value="title" style="shape=partialRectangle;connectable=0;fillColor=none;top=0;left=0;bottom=0;right=0;align=left;spacingLeft=6;overflow=hidden;whiteSpace=wrap;html=1;strokeColor=#FFFFFF;fontColor=#FFFFFF;" vertex="1" parent="96M3sYAH7NTq2ReLCQf2-78">
          <mxGeometry x="30" width="150" height="30" as="geometry">
            <mxRectangle width="150" height="30" as="alternateBounds" />
          </mxGeometry>
        </mxCell>
        <mxCell id="96M3sYAH7NTq2ReLCQf2-81" value="" style="shape=tableRow;horizontal=0;startSize=0;swimlaneHead=0;swimlaneBody=0;fillColor=none;collapsible=0;dropTarget=0;points=[[0,0.5],[1,0.5]];portConstraint=eastwest;top=0;left=0;right=0;bottom=0;strokeColor=#FFFFFF;fontColor=#FFFFFF;" vertex="1" parent="96M3sYAH7NTq2ReLCQf2-74">
          <mxGeometry y="90" width="180" height="30" as="geometry" />
        </mxCell>
        <mxCell id="96M3sYAH7NTq2ReLCQf2-82" value="" style="shape=partialRectangle;connectable=0;fillColor=none;top=0;left=0;bottom=0;right=0;editable=1;overflow=hidden;whiteSpace=wrap;html=1;strokeColor=#FFFFFF;fontColor=#FFFFFF;" vertex="1" parent="96M3sYAH7NTq2ReLCQf2-81">
          <mxGeometry width="30" height="30" as="geometry">
            <mxRectangle width="30" height="30" as="alternateBounds" />
          </mxGeometry>
        </mxCell>
        <mxCell id="96M3sYAH7NTq2ReLCQf2-83" value="author" style="shape=partialRectangle;connectable=0;fillColor=none;top=0;left=0;bottom=0;right=0;align=left;spacingLeft=6;overflow=hidden;whiteSpace=wrap;html=1;strokeColor=#FFFFFF;fontColor=#FFFFFF;" vertex="1" parent="96M3sYAH7NTq2ReLCQf2-81">
          <mxGeometry x="30" width="150" height="30" as="geometry">
            <mxRectangle width="150" height="30" as="alternateBounds" />
          </mxGeometry>
        </mxCell>
        <mxCell id="96M3sYAH7NTq2ReLCQf2-84" value="" style="shape=tableRow;horizontal=0;startSize=0;swimlaneHead=0;swimlaneBody=0;fillColor=none;collapsible=0;dropTarget=0;points=[[0,0.5],[1,0.5]];portConstraint=eastwest;top=0;left=0;right=0;bottom=0;strokeColor=#FFFFFF;fontColor=#FFFFFF;" vertex="1" parent="96M3sYAH7NTq2ReLCQf2-74">
          <mxGeometry y="120" width="180" height="30" as="geometry" />
        </mxCell>
        <mxCell id="96M3sYAH7NTq2ReLCQf2-85" value="" style="shape=partialRectangle;connectable=0;fillColor=none;top=0;left=0;bottom=0;right=0;editable=1;overflow=hidden;whiteSpace=wrap;html=1;strokeColor=#FFFFFF;fontColor=#FFFFFF;" vertex="1" parent="96M3sYAH7NTq2ReLCQf2-84">
          <mxGeometry width="30" height="30" as="geometry">
            <mxRectangle width="30" height="30" as="alternateBounds" />
          </mxGeometry>
        </mxCell>
        <mxCell id="96M3sYAH7NTq2ReLCQf2-86" value="genre" style="shape=partialRectangle;connectable=0;fillColor=none;top=0;left=0;bottom=0;right=0;align=left;spacingLeft=6;overflow=hidden;whiteSpace=wrap;html=1;strokeColor=#FFFFFF;fontColor=#FFFFFF;" vertex="1" parent="96M3sYAH7NTq2ReLCQf2-84">
          <mxGeometry x="30" width="150" height="30" as="geometry">
            <mxRectangle width="150" height="30" as="alternateBounds" />
          </mxGeometry>
        </mxCell>
        <mxCell id="96M3sYAH7NTq2ReLCQf2-90" value="" style="shape=tableRow;horizontal=0;startSize=0;swimlaneHead=0;swimlaneBody=0;fillColor=none;collapsible=0;dropTarget=0;points=[[0,0.5],[1,0.5]];portConstraint=eastwest;top=0;left=0;right=0;bottom=0;strokeColor=#FFFFFF;fontColor=#FFFFFF;" vertex="1" parent="96M3sYAH7NTq2ReLCQf2-74">
          <mxGeometry y="150" width="180" height="30" as="geometry" />
        </mxCell>
        <mxCell id="96M3sYAH7NTq2ReLCQf2-91" value="" style="shape=partialRectangle;connectable=0;fillColor=none;top=0;left=0;bottom=0;right=0;editable=1;overflow=hidden;whiteSpace=wrap;html=1;strokeColor=#FFFFFF;fontColor=#FFFFFF;" vertex="1" parent="96M3sYAH7NTq2ReLCQf2-90">
          <mxGeometry width="30" height="30" as="geometry">
            <mxRectangle width="30" height="30" as="alternateBounds" />
          </mxGeometry>
        </mxCell>
        <mxCell id="96M3sYAH7NTq2ReLCQf2-92" value="price" style="shape=partialRectangle;connectable=0;fillColor=none;top=0;left=0;bottom=0;right=0;align=left;spacingLeft=6;overflow=hidden;whiteSpace=wrap;html=1;strokeColor=#FFFFFF;fontColor=#FFFFFF;" vertex="1" parent="96M3sYAH7NTq2ReLCQf2-90">
          <mxGeometry x="30" width="150" height="30" as="geometry">
            <mxRectangle width="150" height="30" as="alternateBounds" />
          </mxGeometry>
        </mxCell>
        <mxCell id="96M3sYAH7NTq2ReLCQf2-93" value="Suscriptions" style="shape=table;startSize=30;container=1;collapsible=1;childLayout=tableLayout;fixedRows=1;rowLines=0;fontStyle=1;align=center;resizeLast=1;html=1;strokeColor=#FFFFFF;fontColor=#FFFFFF;fillColor=#182E3E;" vertex="1" parent="1">
          <mxGeometry x="663" y="330" width="181" height="210" as="geometry" />
        </mxCell>
        <mxCell id="96M3sYAH7NTq2ReLCQf2-94" value="" style="shape=tableRow;horizontal=0;startSize=0;swimlaneHead=0;swimlaneBody=0;fillColor=none;collapsible=0;dropTarget=0;points=[[0,0.5],[1,0.5]];portConstraint=eastwest;top=0;left=0;right=0;bottom=1;strokeColor=#FFFFFF;fontColor=#FFFFFF;" vertex="1" parent="96M3sYAH7NTq2ReLCQf2-93">
          <mxGeometry y="30" width="181" height="30" as="geometry" />
        </mxCell>
        <mxCell id="96M3sYAH7NTq2ReLCQf2-95" value="PK" style="shape=partialRectangle;connectable=0;fillColor=none;top=0;left=0;bottom=0;right=0;fontStyle=1;overflow=hidden;whiteSpace=wrap;html=1;strokeColor=#FFFFFF;fontColor=#FFFFFF;" vertex="1" parent="96M3sYAH7NTq2ReLCQf2-94">
          <mxGeometry width="30" height="30" as="geometry">
            <mxRectangle width="30" height="30" as="alternateBounds" />
          </mxGeometry>
        </mxCell>
        <mxCell id="96M3sYAH7NTq2ReLCQf2-96" value="SuscriptionId" style="shape=partialRectangle;connectable=0;fillColor=none;top=0;left=0;bottom=0;right=0;align=left;spacingLeft=6;fontStyle=5;overflow=hidden;whiteSpace=wrap;html=1;strokeColor=#FFFFFF;fontColor=#FFFFFF;" vertex="1" parent="96M3sYAH7NTq2ReLCQf2-94">
          <mxGeometry x="30" width="151" height="30" as="geometry">
            <mxRectangle width="151" height="30" as="alternateBounds" />
          </mxGeometry>
        </mxCell>
        <mxCell id="jXA2E4x_HwbBOHdnEVmp-10" value="" style="shape=tableRow;horizontal=0;startSize=0;swimlaneHead=0;swimlaneBody=0;fillColor=none;collapsible=0;dropTarget=0;points=[[0,0.5],[1,0.5]];portConstraint=eastwest;top=0;left=0;right=0;bottom=1;strokeColor=#FFFFFF;fontColor=#FFFFFF;" vertex="1" parent="96M3sYAH7NTq2ReLCQf2-93">
          <mxGeometry y="60" width="181" height="30" as="geometry" />
        </mxCell>
        <mxCell id="jXA2E4x_HwbBOHdnEVmp-11" value="FK" style="shape=partialRectangle;connectable=0;fillColor=none;top=0;left=0;bottom=0;right=0;fontStyle=1;overflow=hidden;whiteSpace=wrap;html=1;strokeColor=#FFFFFF;fontColor=#FFFFFF;" vertex="1" parent="jXA2E4x_HwbBOHdnEVmp-10">
          <mxGeometry width="30" height="30" as="geometry">
            <mxRectangle width="30" height="30" as="alternateBounds" />
          </mxGeometry>
        </mxCell>
        <mxCell id="jXA2E4x_HwbBOHdnEVmp-12" value="UserId" style="shape=partialRectangle;connectable=0;fillColor=none;top=0;left=0;bottom=0;right=0;align=left;spacingLeft=6;fontStyle=5;overflow=hidden;whiteSpace=wrap;html=1;strokeColor=#FFFFFF;fontColor=#FFFFFF;" vertex="1" parent="jXA2E4x_HwbBOHdnEVmp-10">
          <mxGeometry x="30" width="151" height="30" as="geometry">
            <mxRectangle width="151" height="30" as="alternateBounds" />
          </mxGeometry>
        </mxCell>
        <mxCell id="96M3sYAH7NTq2ReLCQf2-100" value="" style="shape=tableRow;horizontal=0;startSize=0;swimlaneHead=0;swimlaneBody=0;fillColor=none;collapsible=0;dropTarget=0;points=[[0,0.5],[1,0.5]];portConstraint=eastwest;top=0;left=0;right=0;bottom=0;strokeColor=#FFFFFF;fontColor=#FFFFFF;" vertex="1" parent="96M3sYAH7NTq2ReLCQf2-93">
          <mxGeometry y="90" width="181" height="30" as="geometry" />
        </mxCell>
        <mxCell id="96M3sYAH7NTq2ReLCQf2-101" value="" style="shape=partialRectangle;connectable=0;fillColor=none;top=0;left=0;bottom=0;right=0;editable=1;overflow=hidden;whiteSpace=wrap;html=1;strokeColor=#FFFFFF;fontColor=#FFFFFF;" vertex="1" parent="96M3sYAH7NTq2ReLCQf2-100">
          <mxGeometry width="30" height="30" as="geometry">
            <mxRectangle width="30" height="30" as="alternateBounds" />
          </mxGeometry>
        </mxCell>
        <mxCell id="96M3sYAH7NTq2ReLCQf2-102" value="start_date" style="shape=partialRectangle;connectable=0;fillColor=none;top=0;left=0;bottom=0;right=0;align=left;spacingLeft=6;overflow=hidden;whiteSpace=wrap;html=1;strokeColor=#FFFFFF;fontColor=#FFFFFF;" vertex="1" parent="96M3sYAH7NTq2ReLCQf2-100">
          <mxGeometry x="30" width="151" height="30" as="geometry">
            <mxRectangle width="151" height="30" as="alternateBounds" />
          </mxGeometry>
        </mxCell>
        <mxCell id="96M3sYAH7NTq2ReLCQf2-103" value="" style="shape=tableRow;horizontal=0;startSize=0;swimlaneHead=0;swimlaneBody=0;fillColor=none;collapsible=0;dropTarget=0;points=[[0,0.5],[1,0.5]];portConstraint=eastwest;top=0;left=0;right=0;bottom=0;strokeColor=#FFFFFF;fontColor=#FFFFFF;" vertex="1" parent="96M3sYAH7NTq2ReLCQf2-93">
          <mxGeometry y="120" width="181" height="30" as="geometry" />
        </mxCell>
        <mxCell id="96M3sYAH7NTq2ReLCQf2-104" value="" style="shape=partialRectangle;connectable=0;fillColor=none;top=0;left=0;bottom=0;right=0;editable=1;overflow=hidden;whiteSpace=wrap;html=1;strokeColor=#FFFFFF;fontColor=#FFFFFF;" vertex="1" parent="96M3sYAH7NTq2ReLCQf2-103">
          <mxGeometry width="30" height="30" as="geometry">
            <mxRectangle width="30" height="30" as="alternateBounds" />
          </mxGeometry>
        </mxCell>
        <mxCell id="96M3sYAH7NTq2ReLCQf2-105" value="finish_date" style="shape=partialRectangle;connectable=0;fillColor=none;top=0;left=0;bottom=0;right=0;align=left;spacingLeft=6;overflow=hidden;whiteSpace=wrap;html=1;strokeColor=#FFFFFF;fontColor=#FFFFFF;" vertex="1" parent="96M3sYAH7NTq2ReLCQf2-103">
          <mxGeometry x="30" width="151" height="30" as="geometry">
            <mxRectangle width="151" height="30" as="alternateBounds" />
          </mxGeometry>
        </mxCell>
        <mxCell id="96M3sYAH7NTq2ReLCQf2-106" value="" style="shape=tableRow;horizontal=0;startSize=0;swimlaneHead=0;swimlaneBody=0;fillColor=none;collapsible=0;dropTarget=0;points=[[0,0.5],[1,0.5]];portConstraint=eastwest;top=0;left=0;right=0;bottom=0;strokeColor=#FFFFFF;fontColor=#FFFFFF;" vertex="1" parent="96M3sYAH7NTq2ReLCQf2-93">
          <mxGeometry y="150" width="181" height="30" as="geometry" />
        </mxCell>
        <mxCell id="96M3sYAH7NTq2ReLCQf2-107" value="" style="shape=partialRectangle;connectable=0;fillColor=none;top=0;left=0;bottom=0;right=0;editable=1;overflow=hidden;whiteSpace=wrap;html=1;strokeColor=#FFFFFF;fontColor=#FFFFFF;" vertex="1" parent="96M3sYAH7NTq2ReLCQf2-106">
          <mxGeometry width="30" height="30" as="geometry">
            <mxRectangle width="30" height="30" as="alternateBounds" />
          </mxGeometry>
        </mxCell>
        <mxCell id="96M3sYAH7NTq2ReLCQf2-108" value="is_active" style="shape=partialRectangle;connectable=0;fillColor=none;top=0;left=0;bottom=0;right=0;align=left;spacingLeft=6;overflow=hidden;whiteSpace=wrap;html=1;strokeColor=#FFFFFF;fontColor=#FFFFFF;" vertex="1" parent="96M3sYAH7NTq2ReLCQf2-106">
          <mxGeometry x="30" width="151" height="30" as="geometry">
            <mxRectangle width="151" height="30" as="alternateBounds" />
          </mxGeometry>
        </mxCell>
        <mxCell id="0z83QQOqZYMPLiicM_sd-26" value="" style="shape=tableRow;horizontal=0;startSize=0;swimlaneHead=0;swimlaneBody=0;fillColor=none;collapsible=0;dropTarget=0;points=[[0,0.5],[1,0.5]];portConstraint=eastwest;top=0;left=0;right=0;bottom=0;strokeColor=#FFFFFF;fontColor=#FFFFFF;" vertex="1" parent="96M3sYAH7NTq2ReLCQf2-93">
          <mxGeometry y="180" width="181" height="30" as="geometry" />
        </mxCell>
        <mxCell id="0z83QQOqZYMPLiicM_sd-27" value="" style="shape=partialRectangle;connectable=0;fillColor=none;top=0;left=0;bottom=0;right=0;editable=1;overflow=hidden;whiteSpace=wrap;html=1;strokeColor=#FFFFFF;fontColor=#FFFFFF;" vertex="1" parent="0z83QQOqZYMPLiicM_sd-26">
          <mxGeometry width="30" height="30" as="geometry">
            <mxRectangle width="30" height="30" as="alternateBounds" />
          </mxGeometry>
        </mxCell>
        <mxCell id="0z83QQOqZYMPLiicM_sd-28" value="type" style="shape=partialRectangle;connectable=0;fillColor=none;top=0;left=0;bottom=0;right=0;align=left;spacingLeft=6;overflow=hidden;whiteSpace=wrap;html=1;strokeColor=#FFFFFF;fontColor=#FFFFFF;" vertex="1" parent="0z83QQOqZYMPLiicM_sd-26">
          <mxGeometry x="30" width="151" height="30" as="geometry">
            <mxRectangle width="151" height="30" as="alternateBounds" />
          </mxGeometry>
        </mxCell>
        <mxCell id="jXA2E4x_HwbBOHdnEVmp-13" value="Payments" style="shape=table;startSize=30;container=1;collapsible=1;childLayout=tableLayout;fixedRows=1;rowLines=0;fontStyle=1;align=center;resizeLast=1;html=1;strokeColor=#FFFFFF;fontColor=#FFFFFF;fillColor=#182E3E;" vertex="1" parent="1">
          <mxGeometry x="400" y="380" width="181" height="180" as="geometry" />
        </mxCell>
        <mxCell id="jXA2E4x_HwbBOHdnEVmp-14" value="" style="shape=tableRow;horizontal=0;startSize=0;swimlaneHead=0;swimlaneBody=0;fillColor=none;collapsible=0;dropTarget=0;points=[[0,0.5],[1,0.5]];portConstraint=eastwest;top=0;left=0;right=0;bottom=1;strokeColor=#FFFFFF;fontColor=#FFFFFF;" vertex="1" parent="jXA2E4x_HwbBOHdnEVmp-13">
          <mxGeometry y="30" width="181" height="30" as="geometry" />
        </mxCell>
        <mxCell id="jXA2E4x_HwbBOHdnEVmp-15" value="PK" style="shape=partialRectangle;connectable=0;fillColor=none;top=0;left=0;bottom=0;right=0;fontStyle=1;overflow=hidden;whiteSpace=wrap;html=1;strokeColor=#FFFFFF;fontColor=#FFFFFF;" vertex="1" parent="jXA2E4x_HwbBOHdnEVmp-14">
          <mxGeometry width="30" height="30" as="geometry">
            <mxRectangle width="30" height="30" as="alternateBounds" />
          </mxGeometry>
        </mxCell>
        <mxCell id="jXA2E4x_HwbBOHdnEVmp-16" value="PaymentId" style="shape=partialRectangle;connectable=0;fillColor=none;top=0;left=0;bottom=0;right=0;align=left;spacingLeft=6;fontStyle=5;overflow=hidden;whiteSpace=wrap;html=1;strokeColor=#FFFFFF;fontColor=#FFFFFF;" vertex="1" parent="jXA2E4x_HwbBOHdnEVmp-14">
          <mxGeometry x="30" width="151" height="30" as="geometry">
            <mxRectangle width="151" height="30" as="alternateBounds" />
          </mxGeometry>
        </mxCell>
        <mxCell id="jXA2E4x_HwbBOHdnEVmp-17" value="" style="shape=tableRow;horizontal=0;startSize=0;swimlaneHead=0;swimlaneBody=0;fillColor=none;collapsible=0;dropTarget=0;points=[[0,0.5],[1,0.5]];portConstraint=eastwest;top=0;left=0;right=0;bottom=1;strokeColor=#FFFFFF;fontColor=#FFFFFF;" vertex="1" parent="jXA2E4x_HwbBOHdnEVmp-13">
          <mxGeometry y="60" width="181" height="30" as="geometry" />
        </mxCell>
        <mxCell id="jXA2E4x_HwbBOHdnEVmp-18" value="FK" style="shape=partialRectangle;connectable=0;fillColor=none;top=0;left=0;bottom=0;right=0;fontStyle=1;overflow=hidden;whiteSpace=wrap;html=1;strokeColor=#FFFFFF;fontColor=#FFFFFF;" vertex="1" parent="jXA2E4x_HwbBOHdnEVmp-17">
          <mxGeometry width="30" height="30" as="geometry">
            <mxRectangle width="30" height="30" as="alternateBounds" />
          </mxGeometry>
        </mxCell>
        <mxCell id="jXA2E4x_HwbBOHdnEVmp-19" value="UserId" style="shape=partialRectangle;connectable=0;fillColor=none;top=0;left=0;bottom=0;right=0;align=left;spacingLeft=6;fontStyle=5;overflow=hidden;whiteSpace=wrap;html=1;strokeColor=#FFFFFF;fontColor=#FFFFFF;" vertex="1" parent="jXA2E4x_HwbBOHdnEVmp-17">
          <mxGeometry x="30" width="151" height="30" as="geometry">
            <mxRectangle width="151" height="30" as="alternateBounds" />
          </mxGeometry>
        </mxCell>
        <mxCell id="jXA2E4x_HwbBOHdnEVmp-20" value="" style="shape=tableRow;horizontal=0;startSize=0;swimlaneHead=0;swimlaneBody=0;fillColor=none;collapsible=0;dropTarget=0;points=[[0,0.5],[1,0.5]];portConstraint=eastwest;top=0;left=0;right=0;bottom=0;strokeColor=#FFFFFF;fontColor=#FFFFFF;" vertex="1" parent="jXA2E4x_HwbBOHdnEVmp-13">
          <mxGeometry y="90" width="181" height="30" as="geometry" />
        </mxCell>
        <mxCell id="jXA2E4x_HwbBOHdnEVmp-21" value="" style="shape=partialRectangle;connectable=0;fillColor=none;top=0;left=0;bottom=0;right=0;editable=1;overflow=hidden;whiteSpace=wrap;html=1;strokeColor=#FFFFFF;fontColor=#FFFFFF;" vertex="1" parent="jXA2E4x_HwbBOHdnEVmp-20">
          <mxGeometry width="30" height="30" as="geometry">
            <mxRectangle width="30" height="30" as="alternateBounds" />
          </mxGeometry>
        </mxCell>
        <mxCell id="jXA2E4x_HwbBOHdnEVmp-22" value="amount" style="shape=partialRectangle;connectable=0;fillColor=none;top=0;left=0;bottom=0;right=0;align=left;spacingLeft=6;overflow=hidden;whiteSpace=wrap;html=1;strokeColor=#FFFFFF;fontColor=#FFFFFF;" vertex="1" parent="jXA2E4x_HwbBOHdnEVmp-20">
          <mxGeometry x="30" width="151" height="30" as="geometry">
            <mxRectangle width="151" height="30" as="alternateBounds" />
          </mxGeometry>
        </mxCell>
        <mxCell id="jXA2E4x_HwbBOHdnEVmp-23" value="" style="shape=tableRow;horizontal=0;startSize=0;swimlaneHead=0;swimlaneBody=0;fillColor=none;collapsible=0;dropTarget=0;points=[[0,0.5],[1,0.5]];portConstraint=eastwest;top=0;left=0;right=0;bottom=0;strokeColor=#FFFFFF;fontColor=#FFFFFF;" vertex="1" parent="jXA2E4x_HwbBOHdnEVmp-13">
          <mxGeometry y="120" width="181" height="30" as="geometry" />
        </mxCell>
        <mxCell id="jXA2E4x_HwbBOHdnEVmp-24" value="" style="shape=partialRectangle;connectable=0;fillColor=none;top=0;left=0;bottom=0;right=0;editable=1;overflow=hidden;whiteSpace=wrap;html=1;strokeColor=#FFFFFF;fontColor=#FFFFFF;" vertex="1" parent="jXA2E4x_HwbBOHdnEVmp-23">
          <mxGeometry width="30" height="30" as="geometry">
            <mxRectangle width="30" height="30" as="alternateBounds" />
          </mxGeometry>
        </mxCell>
        <mxCell id="jXA2E4x_HwbBOHdnEVmp-25" value="date" style="shape=partialRectangle;connectable=0;fillColor=none;top=0;left=0;bottom=0;right=0;align=left;spacingLeft=6;overflow=hidden;whiteSpace=wrap;html=1;strokeColor=#FFFFFF;fontColor=#FFFFFF;" vertex="1" parent="jXA2E4x_HwbBOHdnEVmp-23">
          <mxGeometry x="30" width="151" height="30" as="geometry">
            <mxRectangle width="151" height="30" as="alternateBounds" />
          </mxGeometry>
        </mxCell>
        <mxCell id="0z83QQOqZYMPLiicM_sd-23" value="" style="shape=tableRow;horizontal=0;startSize=0;swimlaneHead=0;swimlaneBody=0;fillColor=none;collapsible=0;dropTarget=0;points=[[0,0.5],[1,0.5]];portConstraint=eastwest;top=0;left=0;right=0;bottom=0;strokeColor=#FFFFFF;fontColor=#FFFFFF;" vertex="1" parent="jXA2E4x_HwbBOHdnEVmp-13">
          <mxGeometry y="150" width="181" height="30" as="geometry" />
        </mxCell>
        <mxCell id="0z83QQOqZYMPLiicM_sd-24" value="FK" style="shape=partialRectangle;connectable=0;fillColor=none;top=0;left=0;bottom=0;right=0;editable=1;overflow=hidden;whiteSpace=wrap;html=1;strokeColor=#FFFFFF;fontColor=#FFFFFF;" vertex="1" parent="0z83QQOqZYMPLiicM_sd-23">
          <mxGeometry width="30" height="30" as="geometry">
            <mxRectangle width="30" height="30" as="alternateBounds" />
          </mxGeometry>
        </mxCell>
        <mxCell id="0z83QQOqZYMPLiicM_sd-25" value="cardId" style="shape=partialRectangle;connectable=0;fillColor=none;top=0;left=0;bottom=0;right=0;align=left;spacingLeft=6;overflow=hidden;whiteSpace=wrap;html=1;strokeColor=#FFFFFF;fontColor=#FFFFFF;" vertex="1" parent="0z83QQOqZYMPLiicM_sd-23">
          <mxGeometry x="30" width="151" height="30" as="geometry">
            <mxRectangle width="151" height="30" as="alternateBounds" />
          </mxGeometry>
        </mxCell>
        <mxCell id="jXA2E4x_HwbBOHdnEVmp-29" value="" style="endArrow=classic;html=1;rounded=0;strokeColor=#FFFFFF;entryX=1;entryY=0.5;entryDx=0;entryDy=0;exitX=0;exitY=0.5;exitDx=0;exitDy=0;" edge="1" parent="1" source="96M3sYAH7NTq2ReLCQf2-25" target="0z83QQOqZYMPLiicM_sd-17">
          <mxGeometry width="50" height="50" relative="1" as="geometry">
            <mxPoint x="68" y="260" as="sourcePoint" />
            <mxPoint x="243" y="149" as="targetPoint" />
            <Array as="points">
              <mxPoint x="33" y="193" />
            </Array>
          </mxGeometry>
        </mxCell>
        <mxCell id="jXA2E4x_HwbBOHdnEVmp-31" value="" style="endArrow=classic;html=1;rounded=0;strokeColor=#FFFFFF;entryX=-0.006;entryY=0.733;entryDx=0;entryDy=0;exitX=0;exitY=0.5;exitDx=0;exitDy=0;entryPerimeter=0;" edge="1" parent="1" target="0z83QQOqZYMPLiicM_sd-20" source="96M3sYAH7NTq2ReLCQf2-25">
          <mxGeometry width="50" height="50" relative="1" as="geometry">
            <mxPoint x="35" y="223" as="sourcePoint" />
            <mxPoint x="-200" y="348" as="targetPoint" />
            <Array as="points">
              <mxPoint x="26" y="358" />
              <mxPoint x="-181" y="360" />
            </Array>
          </mxGeometry>
        </mxCell>
        <mxCell id="jXA2E4x_HwbBOHdnEVmp-32" value="" style="endArrow=classic;html=1;rounded=0;strokeColor=#FFFFFF;exitX=1;exitY=0.5;exitDx=0;exitDy=0;entryX=0;entryY=0.5;entryDx=0;entryDy=0;" edge="1" parent="1" source="96M3sYAH7NTq2ReLCQf2-25" target="0z83QQOqZYMPLiicM_sd-5">
          <mxGeometry width="50" height="50" relative="1" as="geometry">
            <mxPoint x="306" y="227" as="sourcePoint" />
            <mxPoint x="356" y="177" as="targetPoint" />
          </mxGeometry>
        </mxCell>
        <mxCell id="jXA2E4x_HwbBOHdnEVmp-33" value="" style="endArrow=classic;html=1;rounded=0;strokeColor=#FFFFFF;entryX=0;entryY=0.5;entryDx=0;entryDy=0;exitX=1;exitY=0.5;exitDx=0;exitDy=0;" edge="1" parent="1" source="96M3sYAH7NTq2ReLCQf2-25" target="jXA2E4x_HwbBOHdnEVmp-17">
          <mxGeometry width="50" height="50" relative="1" as="geometry">
            <mxPoint x="288" y="157" as="sourcePoint" />
            <mxPoint x="395" y="187" as="targetPoint" />
          </mxGeometry>
        </mxCell>
        <mxCell id="jXA2E4x_HwbBOHdnEVmp-35" value="" style="endArrow=classic;html=1;rounded=0;strokeColor=#FFFFFF;entryX=0;entryY=0.5;entryDx=0;entryDy=0;exitX=1;exitY=0.5;exitDx=0;exitDy=0;" edge="1" parent="1" source="96M3sYAH7NTq2ReLCQf2-25" target="jXA2E4x_HwbBOHdnEVmp-10">
          <mxGeometry width="50" height="50" relative="1" as="geometry">
            <mxPoint x="288" y="157" as="sourcePoint" />
            <mxPoint x="410" y="465" as="targetPoint" />
          </mxGeometry>
        </mxCell>
        <mxCell id="BK9mM5Wp8Fn4CLs3FsEC-1" value="History" style="shape=table;startSize=30;container=1;collapsible=1;childLayout=tableLayout;fixedRows=1;rowLines=0;fontStyle=1;align=center;resizeLast=1;html=1;strokeColor=#FFFFFF;fontColor=#FFFFFF;fillColor=#182E3E;" vertex="1" parent="1">
          <mxGeometry x="111" y="-21" width="180" height="120" as="geometry" />
        </mxCell>
        <mxCell id="BK9mM5Wp8Fn4CLs3FsEC-2" value="" style="shape=tableRow;horizontal=0;startSize=0;swimlaneHead=0;swimlaneBody=0;fillColor=none;collapsible=0;dropTarget=0;points=[[0,0.5],[1,0.5]];portConstraint=eastwest;top=0;left=0;right=0;bottom=1;strokeColor=#FFFFFF;fontColor=#FFFFFF;" vertex="1" parent="BK9mM5Wp8Fn4CLs3FsEC-1">
          <mxGeometry y="30" width="180" height="30" as="geometry" />
        </mxCell>
        <mxCell id="BK9mM5Wp8Fn4CLs3FsEC-3" value="FK" style="shape=partialRectangle;connectable=0;fillColor=none;top=0;left=0;bottom=0;right=0;fontStyle=1;overflow=hidden;whiteSpace=wrap;html=1;strokeColor=#FFFFFF;fontColor=#FFFFFF;" vertex="1" parent="BK9mM5Wp8Fn4CLs3FsEC-2">
          <mxGeometry width="30" height="30" as="geometry">
            <mxRectangle width="30" height="30" as="alternateBounds" />
          </mxGeometry>
        </mxCell>
        <mxCell id="BK9mM5Wp8Fn4CLs3FsEC-4" value="UserId" style="shape=partialRectangle;connectable=0;fillColor=none;top=0;left=0;bottom=0;right=0;align=left;spacingLeft=6;fontStyle=5;overflow=hidden;whiteSpace=wrap;html=1;strokeColor=#FFFFFF;fontColor=#FFFFFF;" vertex="1" parent="BK9mM5Wp8Fn4CLs3FsEC-2">
          <mxGeometry x="30" width="150" height="30" as="geometry">
            <mxRectangle width="150" height="30" as="alternateBounds" />
          </mxGeometry>
        </mxCell>
        <mxCell id="BK9mM5Wp8Fn4CLs3FsEC-6" value="" style="shape=tableRow;horizontal=0;startSize=0;swimlaneHead=0;swimlaneBody=0;fillColor=none;collapsible=0;dropTarget=0;points=[[0,0.5],[1,0.5]];portConstraint=eastwest;top=0;left=0;right=0;bottom=1;strokeColor=#FFFFFF;fontColor=#FFFFFF;" vertex="1" parent="BK9mM5Wp8Fn4CLs3FsEC-1">
          <mxGeometry y="60" width="180" height="30" as="geometry" />
        </mxCell>
        <mxCell id="BK9mM5Wp8Fn4CLs3FsEC-7" value="FK" style="shape=partialRectangle;connectable=0;fillColor=none;top=0;left=0;bottom=0;right=0;fontStyle=1;overflow=hidden;whiteSpace=wrap;html=1;strokeColor=#FFFFFF;fontColor=#FFFFFF;" vertex="1" parent="BK9mM5Wp8Fn4CLs3FsEC-6">
          <mxGeometry width="30" height="30" as="geometry">
            <mxRectangle width="30" height="30" as="alternateBounds" />
          </mxGeometry>
        </mxCell>
        <mxCell id="BK9mM5Wp8Fn4CLs3FsEC-8" value="bookId" style="shape=partialRectangle;connectable=0;fillColor=none;top=0;left=0;bottom=0;right=0;align=left;spacingLeft=6;fontStyle=5;overflow=hidden;whiteSpace=wrap;html=1;strokeColor=#FFFFFF;fontColor=#FFFFFF;" vertex="1" parent="BK9mM5Wp8Fn4CLs3FsEC-6">
          <mxGeometry x="30" width="150" height="30" as="geometry">
            <mxRectangle width="150" height="30" as="alternateBounds" />
          </mxGeometry>
        </mxCell>
        <mxCell id="BK9mM5Wp8Fn4CLs3FsEC-9" value="" style="shape=tableRow;horizontal=0;startSize=0;swimlaneHead=0;swimlaneBody=0;fillColor=none;collapsible=0;dropTarget=0;points=[[0,0.5],[1,0.5]];portConstraint=eastwest;top=0;left=0;right=0;bottom=1;strokeColor=#FFFFFF;fontColor=#FFFFFF;" vertex="1" parent="BK9mM5Wp8Fn4CLs3FsEC-1">
          <mxGeometry y="90" width="180" height="30" as="geometry" />
        </mxCell>
        <mxCell id="BK9mM5Wp8Fn4CLs3FsEC-10" value="PK" style="shape=partialRectangle;connectable=0;fillColor=none;top=0;left=0;bottom=0;right=0;fontStyle=1;overflow=hidden;whiteSpace=wrap;html=1;strokeColor=#FFFFFF;fontColor=#FFFFFF;" vertex="1" parent="BK9mM5Wp8Fn4CLs3FsEC-9">
          <mxGeometry width="30" height="30" as="geometry">
            <mxRectangle width="30" height="30" as="alternateBounds" />
          </mxGeometry>
        </mxCell>
        <mxCell id="BK9mM5Wp8Fn4CLs3FsEC-11" value="historyId" style="shape=partialRectangle;connectable=0;fillColor=none;top=0;left=0;bottom=0;right=0;align=left;spacingLeft=6;fontStyle=5;overflow=hidden;whiteSpace=wrap;html=1;strokeColor=#FFFFFF;fontColor=#FFFFFF;" vertex="1" parent="BK9mM5Wp8Fn4CLs3FsEC-9">
          <mxGeometry x="30" width="150" height="30" as="geometry">
            <mxRectangle width="150" height="30" as="alternateBounds" />
          </mxGeometry>
        </mxCell>
        <mxCell id="BK9mM5Wp8Fn4CLs3FsEC-12" value="" style="endArrow=classic;html=1;rounded=0;strokeColor=#FFFFFF;exitX=1;exitY=0.133;exitDx=0;exitDy=0;entryX=1;entryY=0.5;entryDx=0;entryDy=0;exitPerimeter=0;" edge="1" parent="1" source="96M3sYAH7NTq2ReLCQf2-25" target="BK9mM5Wp8Fn4CLs3FsEC-2">
          <mxGeometry width="50" height="50" relative="1" as="geometry">
            <mxPoint x="301" y="203" as="sourcePoint" />
            <mxPoint x="402" y="157" as="targetPoint" />
            <Array as="points">
              <mxPoint x="427" y="26" />
            </Array>
          </mxGeometry>
        </mxCell>
        <mxCell id="BK9mM5Wp8Fn4CLs3FsEC-13" value="" style="endArrow=classic;html=1;rounded=0;strokeColor=#FFFFFF;exitX=-0.006;exitY=0.3;exitDx=0;exitDy=0;entryX=1;entryY=0.5;entryDx=0;entryDy=0;exitPerimeter=0;" edge="1" parent="1" source="96M3sYAH7NTq2ReLCQf2-75" target="BK9mM5Wp8Fn4CLs3FsEC-6">
          <mxGeometry width="50" height="50" relative="1" as="geometry">
            <mxPoint x="301" y="192" as="sourcePoint" />
            <mxPoint x="226" y="51" as="targetPoint" />
          </mxGeometry>
        </mxCell>
        <mxCell id="T_lcXakBhKp2BVQb9Y8p-1" value="" style="edgeStyle=none;orthogonalLoop=1;jettySize=auto;html=1;rounded=0;" edge="1" parent="1">
          <mxGeometry width="80" relative="1" as="geometry">
            <mxPoint x="336" y="331" as="sourcePoint" />
            <mxPoint x="416" y="331" as="targetPoint" />
            <Array as="points" />
          </mxGeometry>
        </mxCell>
        <mxCell id="0z83QQOqZYMPLiicM_sd-29" value="Cards" style="shape=table;startSize=30;container=1;collapsible=1;childLayout=tableLayout;fixedRows=1;rowLines=0;fontStyle=1;align=center;resizeLast=1;html=1;strokeColor=#FFFFFF;fontColor=#FFFFFF;fillColor=#182E3E;" vertex="1" parent="1">
          <mxGeometry x="-2" y="406" width="181" height="180" as="geometry" />
        </mxCell>
        <mxCell id="0z83QQOqZYMPLiicM_sd-30" value="" style="shape=tableRow;horizontal=0;startSize=0;swimlaneHead=0;swimlaneBody=0;fillColor=none;collapsible=0;dropTarget=0;points=[[0,0.5],[1,0.5]];portConstraint=eastwest;top=0;left=0;right=0;bottom=1;strokeColor=#FFFFFF;fontColor=#FFFFFF;" vertex="1" parent="0z83QQOqZYMPLiicM_sd-29">
          <mxGeometry y="30" width="181" height="30" as="geometry" />
        </mxCell>
        <mxCell id="0z83QQOqZYMPLiicM_sd-31" value="PK" style="shape=partialRectangle;connectable=0;fillColor=none;top=0;left=0;bottom=0;right=0;fontStyle=1;overflow=hidden;whiteSpace=wrap;html=1;strokeColor=#FFFFFF;fontColor=#FFFFFF;" vertex="1" parent="0z83QQOqZYMPLiicM_sd-30">
          <mxGeometry width="30" height="30" as="geometry">
            <mxRectangle width="30" height="30" as="alternateBounds" />
          </mxGeometry>
        </mxCell>
        <mxCell id="0z83QQOqZYMPLiicM_sd-32" value="cardId" style="shape=partialRectangle;connectable=0;fillColor=none;top=0;left=0;bottom=0;right=0;align=left;spacingLeft=6;fontStyle=5;overflow=hidden;whiteSpace=wrap;html=1;strokeColor=#FFFFFF;fontColor=#FFFFFF;" vertex="1" parent="0z83QQOqZYMPLiicM_sd-30">
          <mxGeometry x="30" width="151" height="30" as="geometry">
            <mxRectangle width="151" height="30" as="alternateBounds" />
          </mxGeometry>
        </mxCell>
        <mxCell id="0z83QQOqZYMPLiicM_sd-33" value="" style="shape=tableRow;horizontal=0;startSize=0;swimlaneHead=0;swimlaneBody=0;fillColor=none;collapsible=0;dropTarget=0;points=[[0,0.5],[1,0.5]];portConstraint=eastwest;top=0;left=0;right=0;bottom=1;strokeColor=#FFFFFF;fontColor=#FFFFFF;" vertex="1" parent="0z83QQOqZYMPLiicM_sd-29">
          <mxGeometry y="60" width="181" height="30" as="geometry" />
        </mxCell>
        <mxCell id="0z83QQOqZYMPLiicM_sd-34" value="FK" style="shape=partialRectangle;connectable=0;fillColor=none;top=0;left=0;bottom=0;right=0;fontStyle=1;overflow=hidden;whiteSpace=wrap;html=1;strokeColor=#FFFFFF;fontColor=#FFFFFF;" vertex="1" parent="0z83QQOqZYMPLiicM_sd-33">
          <mxGeometry width="30" height="30" as="geometry">
            <mxRectangle width="30" height="30" as="alternateBounds" />
          </mxGeometry>
        </mxCell>
        <mxCell id="0z83QQOqZYMPLiicM_sd-35" value="userId" style="shape=partialRectangle;connectable=0;fillColor=none;top=0;left=0;bottom=0;right=0;align=left;spacingLeft=6;fontStyle=5;overflow=hidden;whiteSpace=wrap;html=1;strokeColor=#FFFFFF;fontColor=#FFFFFF;" vertex="1" parent="0z83QQOqZYMPLiicM_sd-33">
          <mxGeometry x="30" width="151" height="30" as="geometry">
            <mxRectangle width="151" height="30" as="alternateBounds" />
          </mxGeometry>
        </mxCell>
        <mxCell id="0z83QQOqZYMPLiicM_sd-36" value="" style="shape=tableRow;horizontal=0;startSize=0;swimlaneHead=0;swimlaneBody=0;fillColor=none;collapsible=0;dropTarget=0;points=[[0,0.5],[1,0.5]];portConstraint=eastwest;top=0;left=0;right=0;bottom=0;strokeColor=#FFFFFF;fontColor=#FFFFFF;" vertex="1" parent="0z83QQOqZYMPLiicM_sd-29">
          <mxGeometry y="90" width="181" height="30" as="geometry" />
        </mxCell>
        <mxCell id="0z83QQOqZYMPLiicM_sd-37" value="" style="shape=partialRectangle;connectable=0;fillColor=none;top=0;left=0;bottom=0;right=0;editable=1;overflow=hidden;whiteSpace=wrap;html=1;strokeColor=#FFFFFF;fontColor=#FFFFFF;" vertex="1" parent="0z83QQOqZYMPLiicM_sd-36">
          <mxGeometry width="30" height="30" as="geometry">
            <mxRectangle width="30" height="30" as="alternateBounds" />
          </mxGeometry>
        </mxCell>
        <mxCell id="0z83QQOqZYMPLiicM_sd-38" value="name" style="shape=partialRectangle;connectable=0;fillColor=none;top=0;left=0;bottom=0;right=0;align=left;spacingLeft=6;overflow=hidden;whiteSpace=wrap;html=1;strokeColor=#FFFFFF;fontColor=#FFFFFF;" vertex="1" parent="0z83QQOqZYMPLiicM_sd-36">
          <mxGeometry x="30" width="151" height="30" as="geometry">
            <mxRectangle width="151" height="30" as="alternateBounds" />
          </mxGeometry>
        </mxCell>
        <mxCell id="0z83QQOqZYMPLiicM_sd-39" value="" style="shape=tableRow;horizontal=0;startSize=0;swimlaneHead=0;swimlaneBody=0;fillColor=none;collapsible=0;dropTarget=0;points=[[0,0.5],[1,0.5]];portConstraint=eastwest;top=0;left=0;right=0;bottom=0;strokeColor=#FFFFFF;fontColor=#FFFFFF;" vertex="1" parent="0z83QQOqZYMPLiicM_sd-29">
          <mxGeometry y="120" width="181" height="30" as="geometry" />
        </mxCell>
        <mxCell id="0z83QQOqZYMPLiicM_sd-40" value="" style="shape=partialRectangle;connectable=0;fillColor=none;top=0;left=0;bottom=0;right=0;editable=1;overflow=hidden;whiteSpace=wrap;html=1;strokeColor=#FFFFFF;fontColor=#FFFFFF;" vertex="1" parent="0z83QQOqZYMPLiicM_sd-39">
          <mxGeometry width="30" height="30" as="geometry">
            <mxRectangle width="30" height="30" as="alternateBounds" />
          </mxGeometry>
        </mxCell>
        <mxCell id="0z83QQOqZYMPLiicM_sd-41" value="card" style="shape=partialRectangle;connectable=0;fillColor=none;top=0;left=0;bottom=0;right=0;align=left;spacingLeft=6;overflow=hidden;whiteSpace=wrap;html=1;strokeColor=#FFFFFF;fontColor=#FFFFFF;" vertex="1" parent="0z83QQOqZYMPLiicM_sd-39">
          <mxGeometry x="30" width="151" height="30" as="geometry">
            <mxRectangle width="151" height="30" as="alternateBounds" />
          </mxGeometry>
        </mxCell>
        <mxCell id="0z83QQOqZYMPLiicM_sd-42" value="" style="shape=tableRow;horizontal=0;startSize=0;swimlaneHead=0;swimlaneBody=0;fillColor=none;collapsible=0;dropTarget=0;points=[[0,0.5],[1,0.5]];portConstraint=eastwest;top=0;left=0;right=0;bottom=0;strokeColor=#FFFFFF;fontColor=#FFFFFF;" vertex="1" parent="0z83QQOqZYMPLiicM_sd-29">
          <mxGeometry y="150" width="181" height="30" as="geometry" />
        </mxCell>
        <mxCell id="0z83QQOqZYMPLiicM_sd-43" value="" style="shape=partialRectangle;connectable=0;fillColor=none;top=0;left=0;bottom=0;right=0;editable=1;overflow=hidden;whiteSpace=wrap;html=1;strokeColor=#FFFFFF;fontColor=#FFFFFF;" vertex="1" parent="0z83QQOqZYMPLiicM_sd-42">
          <mxGeometry width="30" height="30" as="geometry">
            <mxRectangle width="30" height="30" as="alternateBounds" />
          </mxGeometry>
        </mxCell>
        <mxCell id="0z83QQOqZYMPLiicM_sd-44" value="cvv" style="shape=partialRectangle;connectable=0;fillColor=none;top=0;left=0;bottom=0;right=0;align=left;spacingLeft=6;overflow=hidden;whiteSpace=wrap;html=1;strokeColor=#FFFFFF;fontColor=#FFFFFF;" vertex="1" parent="0z83QQOqZYMPLiicM_sd-42">
          <mxGeometry x="30" width="151" height="30" as="geometry">
            <mxRectangle width="151" height="30" as="alternateBounds" />
          </mxGeometry>
        </mxCell>
        <mxCell id="0z83QQOqZYMPLiicM_sd-51" value="" style="endArrow=classic;html=1;rounded=0;strokeColor=#FFFFFF;entryX=1;entryY=0.5;entryDx=0;entryDy=0;exitX=0;exitY=0.5;exitDx=0;exitDy=0;" edge="1" parent="1" source="96M3sYAH7NTq2ReLCQf2-25" target="0z83QQOqZYMPLiicM_sd-33">
          <mxGeometry width="50" height="50" relative="1" as="geometry">
            <mxPoint x="121" y="203" as="sourcePoint" />
            <mxPoint x="17" y="201" as="targetPoint" />
            <Array as="points">
              <mxPoint x="108" y="353" />
              <mxPoint x="222" y="356" />
              <mxPoint x="220" y="481" />
            </Array>
          </mxGeometry>
        </mxCell>
      </root>
    </mxGraphModel>
  </diagram>
</mxfile>
